<?xml version="1.0" encoding="UTF-8"?>
<svg width="1em" height="1em" version="1.1" viewBox="0 0 16 16" xml:space="preserve" xmlns="http://www.w3.org/2000/svg" xmlns:xlink="http://www.w3.org/1999/xlink"><defs><linearGradient id="linearGradient2050"><stop stop-color="#f0bf59" offset="0"/><stop stop-color="#f9d986" offset="1"/></linearGradient><linearGradient id="linearGradient2052" x1="123.18" x2="123.18" y1="57.561" y2="121.11" gradientTransform="matrix(-.13418 0 0 -.13121 149.02 99.743)" gradientUnits="userSpaceOnUse" xlink:href="#linearGradient2050"/><linearGradient id="linearGradient4156" x1="123.18" x2="123.18" y1="57.561" y2="112.68" gradientTransform="matrix(.13418 0 0 .13203 -159.75 -100.37)" gradientUnits="userSpaceOnUse" xlink:href="#linearGradient2050"/></defs><g transform="matrix(1.3151 0 0 1.3151 -166.41 -106.31)" stroke="#000" stroke-linecap="round" stroke-linejoin="round"><path d="m127.35 82.565c-0.21043 0-0.37986 0.16565-0.37986 0.37143v8.8523c0 0.20577 0.16943 0.3715 0.37986 0.3715h9.4551c0.21044 0 0.37985-0.16572 0.37985-0.3715v-7.8971c0-0.20577-0.16941-0.37143-0.37985-0.37143h-6.0295c-0.57251 0-0.65185-0.9552-1.0654-0.9552z" fill="url(#linearGradient2052)" stop-color="#000000" stroke-width=".86689" style="paint-order:stroke markers fill"/><rect transform="matrix(-1 0 .11148 -.99377 0 0)" x="-147.59" y="-92.74" width="10.318" height="7.3789" ry=".36641" fill="url(#linearGradient4156)" stop-color="#000000" stroke-width=".8696" style="paint-order:stroke markers fill"/></g></svg>
