<?xml version="1.0" encoding="UTF-8"?>
<svg width="16" height="16" version="1.1" viewBox="0 0 16 16" xml:space="preserve" xmlns="http://www.w3.org/2000/svg" xmlns:xlink="http://www.w3.org/1999/xlink"><defs><linearGradient id="linearGradient2050"><stop stop-color="#f0bf59" offset="0"/><stop stop-color="#f9d986" offset="1"/></linearGradient><linearGradient id="linearGradient2052" x1="123.18" x2="123.18" y1="57.561" y2="121.11" gradientTransform="matrix(-.13229 0 0 -.12937 22.173 18.858)" gradientUnits="userSpaceOnUse" xlink:href="#linearGradient2050"/><linearGradient id="linearGradient4156" x1="123.18" x2="123.18" y1="57.561" y2="112.68" gradientTransform="matrix(.13229 0 0 .11264 -24.407 -18.039)" gradientUnits="userSpaceOnUse" xlink:href="#linearGradient2050"/></defs><g transform="matrix(1.334 0 0 1.334 -.00084043 .048755)" stroke="#000" stroke-linecap="round"><path d="m0.81029 1.92c-0.20749 0-0.37451 0.16333-0.37451 0.36622v8.7282c0 0.20289 0.16703 0.36629 0.37451 0.36629h9.3223c0.20748 0 0.3745-0.1634 0.3745-0.36629v-7.7864c0-0.20289-0.16703-0.36622-0.3745-0.36622h-5.9448c-0.56447 0-0.6427-0.94182-1.0504-0.94182z" fill="url(#linearGradient2052)" stop-color="#000000" stroke-linejoin="round" stroke-width=".87028" style="paint-order:stroke markers fill"/><path d="m7.5984 0.53996h-5.1054v9.1584h6.192v-8.0621z" fill="#fff" stop-color="#000000" stroke-width=".87028" style="paint-order:stroke fill markers"/><path d="m7.5984 0.53996v1.096h1.0867" fill="none" stop-color="#000000" stroke-width=".43514" style="paint-order:stroke markers fill"/><rect transform="matrix(-1 0 .15746 -.98753 0 0)" x="-12.42" y="-11.526" width="10.173" height="6.2957" ry=".31262" fill="url(#linearGradient4156)" stop-color="#000000" stroke-linejoin="round" stroke-width=".87576" style="paint-order:stroke markers fill"/></g></svg>
