<?xml version="1.0" encoding="UTF-8"?>
<svg width="16" height="16" enable-background="new 0 0 353 353" overflow="visible" version="1.1" viewBox="0 0 16 16" xml:space="preserve" xmlns="http://www.w3.org/2000/svg"><defs><linearGradient id="linearGradient1785" x1="434.59" x2="42.154" y1="326.47" y2="90.291" gradientTransform="matrix(.024638 0 0 .022073 3.6152 6.1045)" gradientUnits="userSpaceOnUse"><stop stop-color="#ff9000" offset="0"/><stop stop-color="#fc0" offset="1"/></linearGradient></defs><path d="m7.4302 2.5547-6.7742 10.529c-0.25328 0.39366 0.0633 0.88578 0.56998 0.88578h13.548c0.50655 0 0.82325-0.49212 0.56997-0.88578l-6.7742-10.529c-0.26819-0.41684-0.88561-0.39532-1.14 0z" color="#000000" fill="#fff" stroke="#000" stroke-linecap="round" stroke-linejoin="round" style="paint-order:stroke markers fill"/><path d="m7.5292 3.6351-5.7508 8.9248c-0.35816 0.55584-0.22335 0.75086 0.48387 0.75086h11.502c0.60743 0 0.83518-0.20566 0.48388-0.75086l-5.7508-8.9248c-0.37517-0.58225-0.605-0.56295-0.96773 0z" color="#000000" fill="url(#linearGradient1785)" stroke="#000" stroke-linecap="round" stroke-linejoin="round" stroke-width=".5" style="paint-order:stroke markers fill"/><g transform="translate(-401.9 -234.51)" aria-label="!"><path d="m409.13 240.2c0.0139-0.60133 1.4536-0.61293 1.4653 0 0.027 1.4212-0.055 2.8145-0.20889 4.276-0.0424 0.40301-0.92255 0.43347-0.97263 1e-4 -0.16913-1.4636-0.31709-2.8378-0.28375-4.2761z"/><ellipse cx="409.86" cy="246.43" rx=".80581" ry=".68382" stop-color="#000000" style="paint-order:stroke fill markers"/></g></svg>
